<?xml version="1.0" encoding="utf-8"?>
<!-- Generator: Adobe Illustrator 22.1.0, SVG Export Plug-In . SVG Version: 6.00 Build 0)  -->
<svg version="1.1" id="Calque_1" xmlns="http://www.w3.org/2000/svg" xmlns:xlink="http://www.w3.org/1999/xlink" x="0px" y="0px"
	 viewBox="0 0 250 150" style="enable-background:new 0 0 250 150;" xml:space="preserve">
<style type="text/css">
	.st0{fill:#FEFEFE;}
	.st1{fill:#002394;}
	.st2{fill:#EC2939;}
</style>
<g>
	<ellipse class="st0" cx="125" cy="75" rx="63.6" ry="127.3"/>
	<path class="st1" d="M80-15c0,60,0,120,0,180c-25.7,0-51.3,0-77,0.1c-2.5,0-3.1-0.6-3.1-3.1C0,104,0,46-0.1-12
		c0-2.5,0.6-3.1,3.1-3.1C28.7-15,54.3-15,80-15z"/>
	<path class="st2" d="M170,165c0-60,0-120,0-180c25.7,0,51.3,0,77-0.1c2.5,0,3.1,0.6,3.1,3.1c-0.1,58-0.1,116,0,174
		c0,2.5-0.6,3.1-3.1,3.1C221.3,165,195.7,165,170,165z"/>
</g>
</svg>
