<?xml version="1.0" encoding="utf-8"?>
<!-- Generator: Adobe Illustrator 22.1.0, SVG Export Plug-In . SVG Version: 6.00 Build 0)  -->
<svg version="1.1" id="Calque_1" xmlns="http://www.w3.org/2000/svg" xmlns:xlink="http://www.w3.org/1999/xlink" x="0px" y="0px"
	 viewBox="0 0 250 150" style="enable-background:new 0 0 250 150;" xml:space="preserve">
<style type="text/css">
	.st0{fill:#DC0000;}
	.st1{fill:#FECD00;}
</style>
<g>
	<path d="M0,45C0,26,0,7.1,0-11.9c0-2.3,0.3-3.2,3-3.2c81.4,0.1,162.8,0.1,244.2,0c2.7,0,3,0.9,3,3.2c-0.1,19,0,37.9,0,56.9
		C166.7,45,83.3,45,0,45z"/>
	<ellipse class="st0" cx="125" cy="75" rx="176.8" ry="42.4"/>
	<path class="st1" d="M0,105c83.3,0,166.7,0,250,0c0,19-0.1,38,0.1,57c0,2.5-0.6,3.1-3.1,3.1c-81.3-0.1-162.7-0.1-244,0
		c-2.5,0-3.1-0.6-3.1-3.1C0.1,143,0,124,0,105z"/>
</g>
</svg>
