<?xml version="1.0" encoding="utf-8"?>
<!-- Generator: Adobe Illustrator 22.1.0, SVG Export Plug-In . SVG Version: 6.00 Build 0)  -->
<svg version="1.1" id="Calque_1" xmlns="http://www.w3.org/2000/svg" xmlns:xlink="http://www.w3.org/1999/xlink" x="0px" y="0px"
	 viewBox="0 0 512 512" style="enable-background:new 0 0 512 512;" xml:space="preserve">
<g>
	<path d="M177.9,441.9C78.3,379.9,0.1,301.8,0.1,199.4c0-82.2,48.5-129.3,121.2-129.3c59.3,0,107.8,39.1,107.8,98.3
		c0,51.2-40.4,83.5-71.4,94.3l-56.6-52.5c-16.2,2.7-36.4,16.2-36.4,48.5c0,49.8,36.4,106.4,125.3,164.3L177.9,441.9z"/>
</g>
<g>
	<path d="M460.8,441.9C361.1,379.9,283,301.8,283,199.4c0-82.2,48.5-129.3,121.2-129.3c59.3,0,107.8,39.1,107.8,98.3
		c0,51.2-40.4,83.5-71.4,94.3L384,210.2c-16.2,2.7-36.4,16.2-36.4,48.5c0,49.8,36.4,106.4,125.3,164.3L460.8,441.9z"/>
</g>
</svg>
