<?xml version="1.0" encoding="utf-8"?>
<!-- Generator: Adobe Illustrator 22.1.0, SVG Export Plug-In . SVG Version: 6.00 Build 0)  -->
<svg version="1.1" id="Calque_1" xmlns="http://www.w3.org/2000/svg" xmlns:xlink="http://www.w3.org/1999/xlink" x="0px" y="0px"
	 viewBox="0 0 250 150" style="enable-background:new 0 0 250 150;" xml:space="preserve">
<style type="text/css">
	.st0{fill:#D0132C;}
	.st1{fill:#FDFDFD;}
	.st2{fill:#FCFDFD;}
	.st3{fill:#01247E;}
	.st4{fill:#D0132B;}
	.st5{fill:#03237C;}
	.st6{fill:#04237C;}
	.st7{fill:#04247C;}
	.st8{fill:#D0011A;}
	.st9{fill:#011D67;}
	.st10{fill:#CE011A;}
</style>
<g>
	<path class="st0" d="M107.2-14.8c12,0,24,0,36,0c2.4,2,2.1,4.7,2.1,7.4c0.1,18.3,0,36.6,0,54.9c0,7.1,0.5,7.6,7.7,7.6
		c29.6,0,59.2,0,88.8,0c2.9,0,6.1-0.6,8.4,2.1c0,11.3,0,22.7,0,34c-1.7,0.9-3.6,0.5-5.4,0.5c-33.8,0-67.5,0-101.3,0
		c33.8,0,67.5,0,101.3,0c1.8,0,3.7-0.5,5.4,0.5c0,0.3,0,0.7,0,1c-2.3,2.7-5.4,2.1-8.4,2.1c-28.6,0.1-57.2,0-85.8,0
		c-1.8,0-3.7,0.1-5.5,0c-3.5,0-5.2,1.5-5.2,5.1c0,2.7,0,5.3,0,8c0,16.5,0,32.9,0,49.4c0,2.6,0.2,5.4-2.1,7.4c-12,0-24,0-36,0
		c-2.4-2-2.1-4.7-2.1-7.4c-0.1-18.3,0-36.6,0-54.9c0-7.1-0.5-7.6-7.7-7.6c-29.6,0-59.2,0-88.8,0c-2.9,0-6.1,0.6-8.4-2.1
		c0-0.3,0-0.7,0-1c1.7-0.9,3.6-0.5,5.4-0.5c33.8,0,67.5,0,101.3,0c-33.8,0-67.5,0-101.3,0c-1.8,0-3.7,0.5-5.4-0.5
		c0-11.3,0-22.7,0-34c2.3-2.7,5.4-2.1,8.4-2.1c28.6-0.1,57.2,0,85.8,0c1.8,0,3.7-0.1,5.5,0c3.5,0,5.2-1.5,5.2-5.1c0-2.7,0-5.3,0-8
		c0-16.5,0-32.9,0-49.4C105.1-10,104.8-12.8,107.2-14.8z"/>
	<path class="st1" d="M107.2-14.8c0,22.5-0.2,44.9,0,67.4c0,3.8-1,4.7-4.7,4.7c-34.1-0.1-68.2-0.1-102.3,0c0-4,0-8,0-12
		c1.6-1.8,3.7-2,5.9-2c6.1,0,12.2-0.1,18,0.1c-6.4-3-12.9-6.4-19.4-9.6c-2-1-3.5-2.5-4.5-4.4c0-2,0-4,0-6C2.8,21.3,5,23,7.1,24.1
		c9.9,4.8,19.7,9.7,29.4,14.8c5.7,3,11.5,5.2,18.1,4.5c1.4-0.2,2.8,0.2,3.3,0.3C52,41,45.5,37.5,39,34.3C28.1,28.8,17.3,23.4,6.4,18
		c-2.4-1.2-4.7-2.5-6.2-4.8c0-5.7,0-11.3,0-17C3.3-5.2,5.7-3.2,8.1-2c25.8,12.8,51.6,25.8,77.4,38.6c7.6,3.8,7.7,3.8,7.7-4.9
		c0-13,0-26,0-39c0-2.7-0.3-5.4,2-7.5C99.2-14.8,103.2-14.8,107.2-14.8z"/>
	<path class="st1" d="M143.2,165.2c0-22.8,0-45.5-0.2-68.3c0-3.2,0.9-3.8,3.9-3.8c34.4,0.1,68.8,0.1,103.2,0.1c0,4,0,8,0,12
		c-0.8,0.8-1.7,1.6-3,1.7c-7.9,0.4-15.8,0.8-22-0.1c6.5,2.4,14.1,6.7,21.8,10.7c1.6,0.8,2.3,2.3,3.2,3.7c0,2,0,4,0,6
		c-2.6,1.9-4.8,0.2-6.9-0.9c-9.9-4.8-19.7-9.7-29.4-14.8c-5.7-3-11.5-5.2-18.1-4.5c-1.4,0.2-2.8-0.1-3.1-0.2
		c5.8,2.5,12.2,6,18.8,9.2c10.8,5.4,21.7,10.9,32.6,16.3c2.4,1.2,4.7,2.5,6.2,4.8c0,5.7,0,11.3,0,17c-3.1,1.4-5.5-0.7-7.9-1.9
		c-25.9-12.9-51.8-25.9-77.8-38.8c-2-1-3.8-2.9-6.4-1.8c-1.7,2-1.4,4.3-1.5,6.7c0,13.6,0,27.1,0,40.7c0,2.1,0.3,4.4-1.5,6.1
		C151.2,165.2,147.2,165.2,143.2,165.2z"/>
	<path class="st1" d="M250.2,57.2c-34,0-68-0.1-101.9,0.1c-4.1,0-5.3-0.8-5.3-5.1c0.3-22.3,0.2-44.6,0.2-66.9c4,0,8,0,12,0
		c1.8,1.7,1.5,3.9,1.5,6.1c0,13.4,0,26.8,0,40.2c0,2.5-0.2,5,1.5,7.1c2,1.1,3.5-0.3,5.1-1.1C190.1,24,217.2,11,243.8-3
		c2-1,4-2.6,6.4-0.8c0,2.3,0,4.7,0,7c-1.2,1.6-2.6,3-4.5,3.9c-24,11.9-47.9,24-71.9,35.9c-0.7,0.3-1.4,0.6-2.2,0.7
		c0.2,0,0.3-0.1,0.5-0.1c11.7,1.4,21.1-4.6,30.9-9.5c13.3-6.6,26.4-13.3,39.7-19.8c2.3-1.1,4.6-3.1,7.4-1.1c0,5.3,0,10.7,0,16
		c-0.9,1.4-1.6,2.9-3.2,3.7c-7.6,4-15.2,8.1-23.3,11.2c-0.7,0.1,0.1,0.6-0.2,0.1c-0.1-0.1,0.1-0.2,0.4-0.3
		c7.6-1.5,15.2-0.6,22.8-0.5c1.4,0,2.5,0.8,3.4,1.8C250.2,49.2,250.2,53.2,250.2,57.2z"/>
	<path class="st2" d="M0.2,93.2c34.3,0,68.6,0,102.9-0.1c3.4,0,4.1,1,4.1,4.2c-0.1,22.6,0,45.3,0,67.9c-4,0-8,0-12,0
		c-2.3-2.1-2-4.8-2-7.5c0-13.5,0-27,0-40.5c0-7.2,0-7.2-6.3-4.1c-26.1,13-52.2,26.1-78.3,39.1c-2.6,1.3-5.1,3.4-8.4,2
		c0-2.3,0-4.7,0-7c1.2-1.6,2.6-3,4.5-3.9c24-11.9,47.9-24,71.9-35.9c0.7-0.3,1.4-0.6,1-0.6c1-0.1,0.8-0.1,0.6-0.1
		c-11.7-1.4-21.1,4.6-30.9,9.5c-13.3,6.6-26.4,13.3-39.7,19.8c-2.3,1.1-4.6,3.1-7.4,1.1c0-5.3,0-10.7,0-16c1-2,2.5-3.4,4.5-4.4
		c6.6-3.3,13.1-6.7,19.4-9.6c-5.8,0.2-11.9,0.1-18,0.1c-2.2,0-4.3-0.1-5.9-2C0.2,101.2,0.2,97.2,0.2,93.2z"/>
	<path class="st3" d="M95.2-14.8c0,19.1,0,38.2,0,58.3c-32-15.9-63.5-31.6-95-47.3c0-3.7-1.4-8.8,0.4-10.6s6.9-0.4,10.6-0.4
		C39.2-14.8,67.2-14.8,95.2-14.8z"/>
	<path class="st3" d="M0.2,154.2c31.5-15.7,62.9-31.3,95-47.3c0,19.9,0,39.1,0,58.3c-30.4,0-60.7-0.1-91.1,0.1c-3.5,0-4.4-0.8-4-4.1
		C0.4,158.9,0.2,156.5,0.2,154.2z"/>
	<path class="st3" d="M158.1,108.6c28.9,14.4,57.8,28.8,86.6,43.1c1.8,0.9,3.6,1.7,5.4,2.5c0,3.7,0,7.3,0,11c-3.7,0-7.3,0-11,0
		c-27.7,0-55.3,0-83,0c-1-2.9-0.5-5.9-0.5-8.9c-0.1-14.5,0-28.9,0-43.4C155.7,111.1,154.9,108.7,158.1,108.6z"/>
	<path class="st3" d="M250.2-3.8c-23.9,11.9-47.7,23.7-71.6,35.6c-7.1,3.5-14.3,6.9-21.4,10.4c-1.5-0.7-1.5-2-1.5-3.4
		c0-17.4,0-34.8,0-52.2c0-0.5,0.3-0.9,0.5-1.4c30,0,60,0.1,90.1-0.1c3.5,0,4.4,0.8,4,4.1C249.9-8.5,250.2-6.1,250.2-3.8z"/>
	<path class="st4" d="M250.2,13.2c-9.7,3.9-18.8,9.1-28.2,13.7c-9.3,4.5-18.8,8.6-27.6,14c-8.8,5.4-17.9,4.2-27.5,3.5
		c1.8-1,3.7-1.9,5.5-2.9C197,29.3,221.5,17,246.1,4.7c1.3-0.6,2.4-1.8,4.1-1.5C250.2,6.5,250.2,9.9,250.2,13.2z"/>
	<path class="st4" d="M0.2,137.2c18.5-9.1,37-18.2,55.4-27.4c10.1-5,15.3-5.8,28.4-4.2c-2.4,1.2-4.2,2.2-6,3.1
		C53.6,121,29.1,133.2,4.7,145.4c-1.5,0.7-2.8,1.9-4.6,1.8C0.2,143.9,0.2,140.5,0.2,137.2z"/>
	<path class="st4" d="M0.2,13.2C4.8,14.3,8.6,17,12.7,19c16.9,8.4,33.8,16.8,50.5,25.8c-8.3-0.3-16.6,1.8-24.8-2.7
		C26,35.3,13,29.5,0.2,23.2C0.2,19.9,0.2,16.5,0.2,13.2z"/>
	<path class="st4" d="M250.2,137.2c-1.3,0.4-2.2-0.5-3.2-1c-19.7-9.8-39.3-19.6-58.9-29.4c-0.4-0.2-0.7-0.6-1-1.4
		c8.3,0.5,16.5-1.7,24.8,2.9c12.5,6.8,25.2,13.5,38.4,18.9C250.2,130.5,250.2,133.9,250.2,137.2z"/>
	<path class="st5" d="M250.2,45.2c-10,0-19.9,0-29.9,0c-0.1-0.2-0.2-0.5-0.3-0.7c10.1-5.1,20.1-10.2,30.2-15.3
		C250.2,34.5,250.2,39.9,250.2,45.2z"/>
	<path class="st6" d="M250.2,121.2c-10-5.1-20.1-10.1-30.1-15.2c0-0.3,0.1-0.5,0.1-0.8c10,0,20,0,30,0
		C250.2,110.5,250.2,115.9,250.2,121.2z"/>
	<path class="st5" d="M0.2,29.2c9.9,5.1,19.9,10.1,29.8,15.2c-0.1,0.3-0.1,0.6-0.2,0.8c-9.9,0-19.7,0-29.6,0
		C0.2,39.9,0.2,34.5,0.2,29.2z"/>
	<path class="st7" d="M0.2,105.2c9.9,0,19.7,0,29.6,0c0.1,0.3,0.1,0.5,0.2,0.8c-9.9,5.1-19.9,10.1-29.8,15.2
		C0.2,115.9,0.2,110.5,0.2,105.2z"/>
	<path class="st8" d="M0.2,91.2c35.1,0,70.2,0,105.4,0c0,0.3,0,0.7,0,1c-35.1,0-70.2,0-105.4,0C0.2,91.9,0.2,91.5,0.2,91.2z"/>
	<path class="st8" d="M250.2,92.2c-35.1,0-70.2,0-105.4,0c0-0.3,0-0.7,0-1c35.1,0,70.2,0,105.4,0C250.2,91.5,250.2,91.9,250.2,92.2z
		"/>
	<path class="st9" d="M158.1,108.6c-2.4,1.3-2,3.6-2,5.7c0,17,0,33.9,0,50.9c-0.3,0-0.7,0-1,0c0-18.3,0-36.6-0.1-54.9
		C155,107.4,155.7,106.6,158.1,108.6z"/>
	<path class="st9" d="M156.2-14.8c0,16.9,0,33.8,0,50.7c0,2.2-0.2,4.3,1,6.3c-2.7,2.2-2.1-0.4-2.1-1.6c-0.1-6.8,0-13.6,0-20.5
		c0-11.6,0.1-23.3,0.1-34.9C155.5-14.8,155.8-14.8,156.2-14.8z"/>
	<path class="st10" d="M141.4,55.6c0-22.6,0-45.2,0-67.7c0.2,0,0.3,0,0.5,0c0,22.6,0,45.1,0,67.7C141.7,55.6,141.5,55.6,141.4,55.6z
		"/>
	<path class="st10" d="M141.4,162.6c0-22.6,0-45.2,0-67.7c0.2,0,0.3,0,0.5,0c0,22.6,0,45.2,0,67.8
		C141.7,162.6,141.5,162.6,141.4,162.6z"/>
</g>
</svg>
