<?xml version="1.0" encoding="utf-8"?>
<!-- Generator: Adobe Illustrator 22.1.0, SVG Export Plug-In . SVG Version: 6.00 Build 0)  -->
<svg version="1.1" id="Calque_1" xmlns="http://www.w3.org/2000/svg" xmlns:xlink="http://www.w3.org/1999/xlink" x="0px" y="0px"
	 viewBox="0 0 512 512" style="enable-background:new 0 0 512 512;" xml:space="preserve">
<style type="text/css">
	.st0{fill:#E8193C;}
</style>
<path class="st0" d="M187.4,216.7c0,0,39.4-36,10.3-101.2S175.4,7.4,202.8,0.6S278.3,52,256,108.6s-1.7,92.6,13.7,96
	c15.4,3.4,48-5.1,41.2-51.5s17.2-68.6,32.6-68.6c15.4,0,42.9,17.2,18.9,56.6s-6.9,90.9,20.6,90.9s30.9-15.4,48-30.9
	c17.2-15.4,58.3-17.2,68.6,13.7c10.3,30.9-22.3,53.2-44.6,53.2s-82.3,1.7-78.9,22.3c3.4,20.6,22.3,36,51.5,39.4s41.2,25.7,25.7,32.6
	c-15.4,6.9-89.2-42.9-97.8-6.9c-8.6,36,27.4,73.8,60,92.6c32.6,18.9,27.4,41.2,22.3,49.7c-5.1,8.6-32.6,34.3-61.7-17.2
	s-75.5-101.2-99.5-85.8c-24,15.4-13.7,54.9-1.7,66.9c12,12,15.4,42.9-13.7,44.6s-32.6-29.2-30.9-58.3c1.7-29.2,3.4-58.3-15.4-58.3
	s-32.6,5.1-46.3,34.3s-1.7,63.5-22.3,66.9s-39.4-24-27.4-41.2c12-17.2,65.2-58.3,49.7-94.3s-61.7,1.7-92.6,5.1
	C45,364.2-3,353.9,14.1,297.3c12-15.4,29.2-24,65.2-10.3c36,13.7,77.2,13.7,66.9-10.3c-10.3-24-41.2-58.3-80.6-58.3
	S24.4,178.9,33,168.6s29.2-24,75.5,10.3C146.2,216.7,163.3,239,187.4,216.7z"/>
</svg>
